<?xml version="1.0" encoding="UTF-8" standalone="no"?>
<!-- Created with Inkscape (http://www.inkscape.org/) -->

<svg
   width="156"
   height="156"
   viewBox="0 0 41.274997 41.275001"
   version="1.1"
   id="svg1"
   inkscape:version="1.4.2 (f4327f4, 2025-05-13)"
   sodipodi:docname="logoHoneycomb.svg"
   xmlns:inkscape="http://www.inkscape.org/namespaces/inkscape"
   xmlns:sodipodi="http://sodipodi.sourceforge.net/DTD/sodipodi-0.dtd"
   xmlns="http://www.w3.org/2000/svg"
   xmlns:svg="http://www.w3.org/2000/svg">
  <sodipodi:namedview
     id="namedview1"
     pagecolor="#ffffff"
     bordercolor="#000000"
     borderopacity="0.25"
     inkscape:showpageshadow="2"
     inkscape:pageopacity="0.0"
     inkscape:pagecheckerboard="0"
     inkscape:deskcolor="#d1d1d1"
     inkscape:document-units="mm"
     inkscape:zoom="2.2752385"
     inkscape:cx="-82.6287"
     inkscape:cy="21.316447"
     inkscape:window-width="2496"
     inkscape:window-height="1558"
     inkscape:window-x="-11"
     inkscape:window-y="-11"
     inkscape:window-maximized="1"
     inkscape:current-layer="layer1" />
  <defs
     id="defs1">
    <rect
       x="215.68381"
       y="16.160748"
       width="417.07156"
       height="179.01135"
       id="rect3" />
  </defs>
  <g
     inkscape:label="Camada 1"
     inkscape:groupmode="layer"
     id="layer1">
    <path
       style="fill:#000000;stroke-width:0.174048"
       d="M 29.704073,25.916369 Z"
       id="path1" />
    <path
       sodipodi:type="star"
       style="fill:none;stroke:#180f0b;stroke-width:0.3;stroke-linecap:round;stroke-linejoin:round;stroke-dasharray:none;stroke-opacity:1"
       id="path3"
       inkscape:flatsided="true"
       sodipodi:sides="6"
       sodipodi:cx="33.898003"
       sodipodi:cy="15.350039"
       sodipodi:r1="1.5812894"
       sodipodi:r2="1.3694367"
       sodipodi:arg1="0.50888422"
       sodipodi:arg2="1.032483"
       inkscape:rounded="0.03"
       inkscape:randomized="0"
       d="m 35.278925,16.120448 c -0.02311,0.04143 -1.310222,0.810011 -1.357655,0.810709 -0.04743,6.98e-4 -1.356601,-0.72968 -1.380922,-0.770409 -0.02432,-0.04073 -0.04638,-1.539691 -0.02327,-1.581119 0.02311,-0.04143 1.310221,-0.810011 1.357654,-0.810709 0.04743,-6.98e-4 1.356601,0.72968 1.380923,0.770409 0.02432,0.04073 0.04638,1.539691 0.02327,1.581119 z"
       transform="matrix(3.6838494,0,0,3.7649831,-109.81394,-26.928099)" />
    <path
       sodipodi:type="star"
       style="fill:none;stroke:#180f0b;stroke-width:0.3;stroke-linecap:round;stroke-linejoin:round;stroke-dasharray:none;stroke-opacity:1"
       id="path3-5"
       inkscape:flatsided="true"
       sodipodi:sides="6"
       sodipodi:cx="33.898003"
       sodipodi:cy="15.350039"
       sodipodi:r1="1.5812894"
       sodipodi:r2="1.3694367"
       sodipodi:arg1="0.50888422"
       sodipodi:arg2="1.032483"
       inkscape:rounded="0.03"
       inkscape:randomized="0"
       d="m 35.278925,16.120448 c -0.02311,0.04143 -1.310222,0.810011 -1.357655,0.810709 -0.04743,6.98e-4 -1.356601,-0.72968 -1.380922,-0.770409 -0.02432,-0.04073 -0.04638,-1.539691 -0.02327,-1.581119 0.02311,-0.04143 1.310221,-0.810011 1.357654,-0.810709 0.04743,-6.98e-4 1.356601,0.72968 1.380923,0.770409 0.02432,0.04073 0.04638,1.539691 0.02327,1.581119 z"
       transform="matrix(3.6838494,0,0,3.7649831,-97.733841,-26.929767)" />
    <path
       sodipodi:type="star"
       style="fill:#4a3329;fill-opacity:1;stroke:#4a3329;stroke-width:0.3;stroke-linecap:round;stroke-linejoin:round;stroke-dasharray:none;stroke-opacity:1"
       id="path3-9"
       inkscape:flatsided="true"
       sodipodi:sides="6"
       sodipodi:cx="33.898003"
       sodipodi:cy="15.350039"
       sodipodi:r1="1.5812894"
       sodipodi:r2="1.3694367"
       sodipodi:arg1="0.50888422"
       sodipodi:arg2="1.032483"
       inkscape:rounded="0.03"
       inkscape:randomized="0"
       d="m 35.278925,16.120448 c -0.02311,0.04143 -1.310222,0.810011 -1.357655,0.810709 -0.04743,6.98e-4 -1.356601,-0.72968 -1.380922,-0.770409 -0.02432,-0.04073 -0.04638,-1.539691 -0.02327,-1.581119 0.02311,-0.04143 1.310221,-0.810011 1.357654,-0.810709 0.04743,-6.98e-4 1.356601,0.72968 1.380923,0.770409 0.02432,0.04073 0.04638,1.539691 0.02327,1.581119 z"
       transform="matrix(3.6838494,0,0,3.7649831,-109.89103,-48.200845)" />
    <path
       sodipodi:type="star"
       style="fill:none;stroke:#180f0b;stroke-width:0.3;stroke-linecap:round;stroke-linejoin:round;stroke-dasharray:none;stroke-opacity:1"
       id="path3-5-2"
       inkscape:flatsided="true"
       sodipodi:sides="6"
       sodipodi:cx="33.898003"
       sodipodi:cy="15.350039"
       sodipodi:r1="1.5812894"
       sodipodi:r2="1.3694367"
       sodipodi:arg1="0.50888422"
       sodipodi:arg2="1.032483"
       inkscape:rounded="0.03"
       inkscape:randomized="0"
       d="m 35.278925,16.120448 c -0.02311,0.04143 -1.310222,0.810011 -1.357655,0.810709 -0.04743,6.98e-4 -1.356601,-0.72968 -1.380922,-0.770409 -0.02432,-0.04073 -0.04638,-1.539691 -0.02327,-1.581119 0.02311,-0.04143 1.310221,-0.810011 1.357654,-0.810709 0.04743,-6.98e-4 1.356601,0.72968 1.380923,0.770409 0.02432,0.04073 0.04638,1.539691 0.02327,1.581119 z"
       transform="matrix(3.6838494,0,0,3.7649831,-97.810922,-48.202518)" />
    <path
       sodipodi:type="star"
       style="fill:#4a3329;fill-opacity:1;stroke:#4a3329;stroke-width:0.3;stroke-linecap:round;stroke-linejoin:round;stroke-dasharray:none;stroke-opacity:1"
       id="path3-8"
       inkscape:flatsided="true"
       sodipodi:sides="6"
       sodipodi:cx="33.898003"
       sodipodi:cy="15.350039"
       sodipodi:r1="1.5812894"
       sodipodi:r2="1.3694367"
       sodipodi:arg1="0.50888422"
       sodipodi:arg2="1.032483"
       inkscape:rounded="0.03"
       inkscape:randomized="0"
       d="m 35.278925,16.120448 c -0.02311,0.04143 -1.310222,0.810011 -1.357655,0.810709 -0.04743,6.98e-4 -1.356601,-0.72968 -1.380922,-0.770409 -0.02432,-0.04073 -0.04638,-1.539691 -0.02327,-1.581119 0.02311,-0.04143 1.310221,-0.810011 1.357654,-0.810709 0.04743,-6.98e-4 1.356601,0.72968 1.380923,0.770409 0.02432,0.04073 0.04638,1.539691 0.02327,1.581119 z"
       transform="matrix(3.6838494,0,0,3.7649831,-115.96628,-37.559769)" />
    <path
       sodipodi:type="star"
       style="fill:none;stroke:#180f0b;stroke-width:0.3;stroke-linecap:round;stroke-linejoin:round;stroke-dasharray:none;stroke-opacity:1"
       id="path3-3"
       inkscape:flatsided="true"
       sodipodi:sides="6"
       sodipodi:cx="33.898003"
       sodipodi:cy="15.350039"
       sodipodi:r1="1.5812894"
       sodipodi:r2="1.3694367"
       sodipodi:arg1="0.50888422"
       sodipodi:arg2="1.032483"
       inkscape:rounded="0.03"
       inkscape:randomized="0"
       d="m 35.278925,16.120448 c -0.02311,0.04143 -1.310222,0.810011 -1.357655,0.810709 -0.04743,6.98e-4 -1.356601,-0.72968 -1.380922,-0.770409 -0.02432,-0.04073 -0.04638,-1.539691 -0.02327,-1.581119 0.02311,-0.04143 1.310221,-0.810011 1.357654,-0.810709 0.04743,-6.98e-4 1.356601,0.72968 1.380923,0.770409 0.02432,0.04073 0.04638,1.539691 0.02327,1.581119 z"
       transform="matrix(3.6838494,0,0,3.7649831,-91.814593,-37.558315)" />
    <path
       sodipodi:type="star"
       style="fill:#4a3329;fill-opacity:1;stroke:#4a3329;stroke-width:0.3;stroke-linecap:round;stroke-linejoin:round;stroke-dasharray:none;stroke-opacity:1"
       id="path3-8-2"
       inkscape:flatsided="true"
       sodipodi:sides="6"
       sodipodi:cx="33.898003"
       sodipodi:cy="15.350039"
       sodipodi:r1="1.5812894"
       sodipodi:r2="1.3694367"
       sodipodi:arg1="0.50888422"
       sodipodi:arg2="1.032483"
       inkscape:rounded="0.03"
       inkscape:randomized="0"
       d="m 35.278925,16.120448 c -0.02311,0.04143 -1.310222,0.810011 -1.357655,0.810709 -0.04743,6.98e-4 -1.356601,-0.72968 -1.380922,-0.770409 -0.02432,-0.04073 -0.04638,-1.539691 -0.02327,-1.581119 0.02311,-0.04143 1.310221,-0.810011 1.357654,-0.810709 0.04743,-6.98e-4 1.356601,0.72968 1.380923,0.770409 0.02432,0.04073 0.04638,1.539691 0.02327,1.581119 z"
       transform="matrix(3.6838494,0,0,3.7649831,-103.87379,-37.558315)" />
    <text
       xml:space="preserve"
       transform="scale(0.26458333)"
       id="text3"
       style="font-size:192px;text-align:start;letter-spacing:0px;writing-mode:lr-tb;direction:ltr;white-space:pre;shape-inside:url(#rect3);display:inline;fill:#000000;fill-opacity:1;stroke:#000000;stroke-width:1.13386;stroke-linecap:round;stroke-linejoin:round;stroke-dasharray:none;stroke-opacity:1"><tspan
         x="215.68359"
         y="370.3393"
         id="tspan2"><tspan
           dx="0 22.042944 17.803366 18.562481 17.473938 17.10154 15.282539 17.80336 28.531227"
           style="font-size:29.3333px"
           id="tspan1">Honeycomb</tspan></tspan></text>
    <text
       xml:space="preserve"
       style="font-size:35.2778px;text-align:start;letter-spacing:0px;writing-mode:lr-tb;direction:ltr;text-anchor:start;fill:#000000;fill-opacity:1;stroke:#000000;stroke-width:0.3;stroke-linecap:round;stroke-linejoin:round;stroke-dasharray:none;stroke-opacity:1"
       x="39.382317"
       y="34.971062"
       id="text4"><tspan
         sodipodi:role="line"
         id="tspan4"
         style="font-style:normal;font-variant:normal;font-weight:normal;font-stretch:normal;font-size:35.2778px;font-family:'Cooper Black';-inkscape-font-specification:'Cooper Black, ';stroke-width:0.3"
         x="39.382317"
         y="34.971062" /></text>
  </g>
</svg>
